<svg width="223" height="88" viewBox="0 0 223 88" fill="none" xmlns="http://www.w3.org/2000/svg">
<g id="Group 22" filter="url(#filter0_d_984_516)">
<g id="Group">
<g id="Group_2">
<g id="Group_3">
<path id="Vector" d="M106.858 28.4136H103.802C103.884 30.0849 104.165 31.2488 104.649 31.9053C105.13 32.5617 105.742 32.9613 106.488 33.0977L106.612 34.9466H93.1507L93.275 33.0977C94.9545 32.8249 95.85 31.2615 95.9584 28.4136H84.4375V25.9083L101.08 6.18254H103.805V25.9051H106.861V28.4136H106.858ZM95.9584 17.1934L88.6921 25.9051H95.9584V17.1934Z" fill="#093454"/>
<path id="Vector_2" d="M159.754 38.397C160.36 39.082 160.662 39.9446 160.662 40.9848C160.662 41.8886 160.289 42.7988 159.547 43.7185C158.804 44.635 157.654 45.4025 156.099 46.0209C154.543 46.6361 152.622 46.9437 150.34 46.9437C145.798 46.9437 141.509 45.634 137.477 43.0208C133.446 40.4044 129.695 36.8081 126.224 32.2351C125.892 31.7974 125.108 30.716 123.869 28.9876C122.135 26.495 120.841 24.7539 119.987 23.7676V27.5478C119.987 29.549 120.236 30.938 120.73 31.7181C121.224 32.4983 121.871 32.9581 122.67 33.0945L122.795 34.9434H108.922L109.046 33.0945C110.834 32.8218 111.73 31.1093 111.73 27.9569V11.0315C111.73 9.19531 110.834 8.19634 109.046 8.03143L109.212 6.18254H122.508L122.674 8.03143C120.883 8.19634 119.99 9.19531 119.99 11.0315V20.647L125.274 12.5125C126.045 11.1711 126.431 10.1023 126.431 9.30631C126.431 8.59276 126.128 8.17097 125.523 8.03143V6.18254H136.301L136.135 8.03143C135.253 8.1678 134.312 8.6213 133.305 9.38876C132.301 10.1562 131.138 11.5516 129.816 13.5813L126.1 19.2485L136.011 35.0259C138.296 38.286 140.683 40.5725 143.175 41.8886C145.668 43.2047 148.22 43.8612 150.834 43.8612C151.825 43.8612 152.548 43.579 153.001 43.0176C153.457 42.4563 153.683 41.7776 153.683 40.9848C153.683 39.9161 154.027 39.0471 154.715 38.3748C155.404 37.7025 156.229 37.3695 157.192 37.3695C158.294 37.3695 159.148 37.712 159.754 38.397Z" fill="#093454"/>
</g>
</g>
<g id="Group_4">
<g id="Group_5">
<path id="Vector_3" d="M88.3564 68.0853V66.5757C88.5604 66.5757 88.7962 66.5313 89.064 66.4425C89.3348 66.3537 89.593 66.2237 89.8384 66.0556C90.087 65.8875 90.2941 65.6909 90.463 65.4689C90.6319 65.2438 90.7148 64.9996 90.7148 64.73V43.2442C90.7148 42.9746 90.6319 42.7304 90.463 42.5053C90.2941 42.2801 90.087 42.0867 89.8384 41.9186C89.5898 41.7505 89.3317 41.6236 89.064 41.5317C88.7931 41.4429 88.5572 41.3985 88.3564 41.3985V39.8889H101.579C102.905 39.8889 104.25 39.9777 105.611 40.1585C106.972 40.3392 108.214 40.6944 109.339 41.2336C110.464 41.7695 111.379 42.5306 112.09 43.5169C112.797 44.5032 113.151 45.8003 113.151 47.4113C113.151 48.5308 112.976 49.4917 112.628 50.2972C112.281 51.1028 111.803 51.7846 111.194 52.3459C110.586 52.9041 109.878 53.3576 109.069 53.7064C108.259 54.0553 107.405 54.3153 106.506 54.4961L114.027 64.7332C114.343 65.1803 114.713 65.6021 115.14 65.9922C115.567 66.3823 115.984 66.5789 116.389 66.5789V68.0884H104.212V66.5789C104.549 66.5789 104.795 66.4235 104.954 66.1095C105.11 65.7956 105.101 65.4848 104.919 65.1708C104.288 64.1433 103.727 63.2141 103.233 62.3832C102.739 61.5555 102.264 60.7563 101.815 59.9825C101.366 59.2119 100.916 58.4286 100.467 57.6325C100.018 56.8397 99.5108 55.9359 98.9499 54.9306H98.4783V64.7332C98.4783 65.0027 98.5611 65.2469 98.73 65.4721C98.8989 65.6973 99.1061 65.8907 99.3547 66.0588C99.6033 66.2269 99.8614 66.3569 100.129 66.4457C100.4 66.5345 100.636 66.5789 100.837 66.5789V68.0884H88.3564V68.0853ZM98.4751 53.2466C99.5778 53.2466 100.556 53.1736 101.41 53.0278C102.264 52.8819 102.991 52.5965 103.587 52.1715C104.183 51.7465 104.632 51.1535 104.935 50.3924C105.238 49.6313 105.391 48.6355 105.391 47.405C105.391 46.7802 105.333 46.1143 105.222 45.407C105.11 44.703 104.9 44.0529 104.597 43.4598C104.294 42.8668 103.893 42.3752 103.399 41.982C102.905 41.5919 102.264 41.3953 101.477 41.3953C101.139 41.3953 100.792 41.4238 100.432 41.4778C100.072 41.5348 99.7467 41.63 99.4535 41.7632C99.1603 41.8964 98.9244 42.0835 98.746 42.3182C98.5643 42.5528 98.4751 42.8605 98.4751 43.241V53.2466Z" fill="#093454"/>
<path id="Vector_4" d="M115.917 58.1812C115.917 56.6367 116.197 55.2667 116.762 54.068C117.322 52.8724 118.087 51.8639 119.056 51.0457C120.022 50.2306 121.16 49.6154 122.463 49.2C123.766 48.7845 125.172 48.5784 126.679 48.5784C127.871 48.5784 128.91 48.7908 129.799 49.2158C130.689 49.6408 131.425 50.2053 132.008 50.9125C132.591 51.6165 133.037 52.4189 133.34 53.3132C133.643 54.2075 133.796 55.1367 133.796 56.0976L123.878 59.4909C124.012 60.2965 124.209 61.0576 124.468 61.7743C124.726 62.491 125.076 63.1285 125.513 63.6866C125.953 64.2448 126.479 64.6888 127.097 65.0122C127.715 65.3357 128.442 65.4975 129.274 65.4975C130.083 65.4975 130.854 65.2945 131.584 64.8917C132.314 64.489 132.904 63.8737 133.356 63.046L134.131 63.8864C133.815 64.6475 133.388 65.3135 132.849 65.8844C132.311 66.4552 131.689 66.9372 130.995 67.3273C130.297 67.7206 129.544 68.0092 128.735 68.1994C127.925 68.3897 127.094 68.4849 126.24 68.4849C124.732 68.4849 123.349 68.2216 122.09 67.6952C120.831 67.1687 119.745 66.4425 118.836 65.5133C117.925 64.5841 117.211 63.4932 116.695 62.2405C116.175 60.991 115.917 59.6368 115.917 58.1812ZM123.709 57.141V57.7784L129.038 55.5299C128.971 54.8576 128.882 54.198 128.767 53.5479C128.655 52.8977 128.496 52.3237 128.295 51.8195C128.091 51.3152 127.839 50.9093 127.537 50.5953C127.234 50.2814 126.867 50.126 126.44 50.126C126.058 50.126 125.698 50.3226 125.36 50.7127C125.022 51.1059 124.729 51.626 124.484 52.273C124.235 52.9231 124.044 53.6652 123.91 54.5056C123.776 55.346 123.709 56.2245 123.709 57.141Z" fill="#093454"/>
<path id="Vector_5" d="M144.182 48.5816C145.601 48.5816 146.965 48.7338 148.281 49.0351C149.597 49.3364 150.907 49.7581 152.21 50.2941C152.277 51.1884 152.341 51.9622 152.395 52.6092C152.453 53.2593 152.513 53.9506 152.58 54.6896L151.063 54.8577C150.636 53.2244 149.932 52.0225 148.953 51.2487C147.975 50.478 146.585 50.0911 144.788 50.0911C144.361 50.0911 143.915 50.1292 143.456 50.2085C142.994 50.2878 142.567 50.4209 142.175 50.6112C141.779 50.8015 141.454 51.0647 141.196 51.4009C140.938 51.7371 140.807 52.162 140.807 52.6758C140.807 53.2117 141.101 53.6335 141.684 53.9348C142.267 54.2361 142.994 54.512 143.861 54.7562C144.727 55.0035 145.671 55.2826 146.694 55.5966C147.717 55.9105 148.66 56.3482 149.527 56.9063C150.394 57.4645 151.117 58.1971 151.704 59.1041C152.287 60.0111 152.58 61.1781 152.58 62.6116C152.58 63.7755 152.3 64.7491 151.736 65.5324C151.175 66.3157 150.458 66.9436 149.594 67.413C148.727 67.8823 147.771 68.2185 146.726 68.4215C145.68 68.6213 144.686 68.7227 143.739 68.7227C142.321 68.7227 140.957 68.5705 139.641 68.2692C138.325 67.968 137.015 67.5493 135.711 67.0102C135.645 66.1159 135.581 65.3421 135.527 64.6951C135.469 64.045 135.409 63.3537 135.342 62.6147L136.859 62.4467C137.286 64.0799 137.99 65.2818 138.969 66.0556C139.947 66.8263 141.336 67.2132 143.134 67.2132C143.561 67.2132 144.004 67.1751 144.466 67.0958C144.928 67.0166 145.355 66.8834 145.747 66.6931C146.139 66.5028 146.468 66.2396 146.726 65.9034C146.984 65.5673 147.114 65.1423 147.114 64.6285C147.114 64.137 146.821 63.7437 146.238 63.4551C145.652 63.1634 144.928 62.8843 144.061 62.6147C143.194 62.3452 142.251 62.0502 141.228 61.7268C140.205 61.4033 139.259 60.9561 138.395 60.3853C137.528 59.8144 136.805 59.0755 136.218 58.1685C135.632 57.2615 135.342 56.104 135.342 54.6959C135.342 53.532 135.622 52.5584 136.186 51.7751C136.747 50.9918 137.461 50.3639 138.328 49.8945C139.195 49.4251 140.151 49.089 141.196 48.8892C142.245 48.6831 143.239 48.5816 144.182 48.5816Z" fill="#093454"/>
<path id="Vector_6" d="M153.797 58.5522C153.797 57.0966 154.001 55.7678 154.406 54.5564C154.81 53.3481 155.438 52.3015 156.295 51.4167C157.15 50.5319 158.24 49.8437 159.568 49.3522C160.894 48.8606 162.469 48.6133 164.292 48.6133C166.115 48.6133 167.686 48.8606 169.015 49.3522C170.34 49.8437 171.43 50.5319 172.288 51.4167C173.142 52.3015 173.773 53.3481 174.178 54.5564C174.582 55.7646 174.786 57.0966 174.786 58.5522C174.786 59.9857 174.582 61.3113 174.178 62.5291C173.773 63.7501 173.142 64.7998 172.288 65.6846C171.434 66.5694 170.344 67.2576 169.015 67.7491C167.689 68.2407 166.115 68.488 164.292 68.488C162.469 68.488 160.894 68.2407 159.568 67.7491C158.243 67.2576 157.15 66.5694 156.295 65.6846C155.441 64.7998 154.81 63.7501 154.406 62.5291C153.998 61.3081 153.797 59.9825 153.797 58.5522ZM161.554 58.6854C161.554 59.5132 161.583 60.4075 161.637 61.3716C161.694 62.3356 161.815 63.2236 162.007 64.0387C162.198 64.8569 162.472 65.5387 162.832 66.0873C163.192 66.636 163.676 66.9087 164.282 66.9087C164.888 66.9087 165.372 66.636 165.732 66.0873C166.092 65.5387 166.366 64.8569 166.558 64.0387C166.749 63.2236 166.873 62.3325 166.927 61.3716C166.985 60.4106 167.01 59.5132 167.01 58.6854C167.01 57.8577 166.981 56.9444 166.927 55.9486C166.87 54.9528 166.746 54.0236 166.558 53.161C166.366 52.2984 166.089 51.5785 165.732 50.9949C165.372 50.4146 164.888 50.1228 164.282 50.1228C163.676 50.1228 163.192 50.4146 162.832 50.9949C162.472 51.5785 162.198 52.2984 162.007 53.161C161.815 54.0236 161.691 54.9528 161.637 55.9486C161.583 56.9475 161.554 57.8577 161.554 58.6854Z" fill="#093454"/>
<path id="Vector_7" d="M175.991 66.5726C176.195 66.5726 176.431 66.5282 176.699 66.4394C176.97 66.3506 177.228 66.2206 177.473 66.0525C177.722 65.8844 177.929 65.6878 178.098 65.4658C178.267 65.2406 178.35 64.9964 178.35 64.7269V52.9453C178.35 52.365 178.181 51.9273 177.843 51.6356C177.505 51.3438 177.078 51.1979 176.562 51.1979V49.6884C176.607 49.6884 176.804 49.6725 177.152 49.6376C177.499 49.6027 177.926 49.5583 178.433 49.5044C178.939 49.4505 179.484 49.3871 180.068 49.3205C180.651 49.2539 181.215 49.1905 181.754 49.1366C182.292 49.0795 182.767 49.0351 183.172 49.0034C183.576 48.9685 183.847 48.9526 183.981 48.9526C184.497 48.9526 184.925 49.1366 185.262 49.5076C185.6 49.8755 185.769 50.2751 185.769 50.7V51.0362C186.352 50.1863 187.085 49.571 187.962 49.1905C188.838 48.8099 189.737 48.6196 190.661 48.6196C191.27 48.6196 191.847 48.6926 192.398 48.8385C192.949 48.9843 193.431 49.1905 193.848 49.46C194.262 49.7296 194.6 50.0531 194.862 50.4336C195.12 50.8142 195.25 51.2392 195.25 51.7085C195.25 52.0669 195.132 52.3967 194.897 52.698C194.661 52.9992 194.368 53.2625 194.02 53.4876C193.67 53.7128 193.29 53.884 192.873 54.0077C192.455 54.1314 192.07 54.1917 191.71 54.1917C191.528 54.1917 191.394 54.179 191.305 54.1568C190.878 53.2625 190.444 52.625 190.008 52.2445C189.568 51.8639 189.125 51.6736 188.676 51.6736C188.182 51.6736 187.669 51.8544 187.139 52.2096C186.61 52.5679 186.155 53.0944 185.772 53.7857V64.73C185.772 64.9996 185.855 65.2438 186.024 65.4689C186.193 65.6941 186.4 65.8876 186.649 66.0556C186.897 66.2237 187.155 66.3537 187.423 66.4425C187.694 66.5313 187.93 66.5757 188.131 66.5757V68.0853H175.988V66.5726H175.991Z" fill="#093454"/>
<path id="Vector_8" d="M171.641 73.5209C171.641 72.3793 171.966 71.4628 172.619 70.7682C173.272 70.0737 174.104 69.728 175.114 69.728C175.675 69.728 176.284 69.8612 176.937 70.1308C176.804 70.5114 176.733 70.8475 176.733 71.1361C176.733 71.6277 176.88 72.0463 177.173 72.3951C177.466 72.7408 177.842 73.0452 178.305 73.3021C178.767 73.559 179.289 73.7715 179.873 73.9396C180.459 74.1076 181.036 74.2408 181.609 74.3423C182.183 74.4438 182.728 74.5104 183.244 74.5421C183.761 74.577 184.178 74.5929 184.494 74.5929C187.011 74.5929 189.475 74.317 191.881 73.7715C194.287 73.2228 196.658 72.6361 198.998 72.0082C198.459 70.3972 198.188 68.5293 198.188 66.4013V50.126H196.435V48.6164H198.188V47.9124C198.841 47.5984 199.418 47.3035 199.925 47.0244C200.432 46.7454 200.91 46.4377 201.359 46.1016C201.808 45.7654 202.251 45.3975 202.691 44.9948C203.131 44.592 203.596 44.1227 204.09 43.5835H205.607V48.6196H208.24V50.1292H205.607V64.73C205.607 65.4245 205.607 66.2618 205.607 67.248C205.607 68.2312 205.665 69.2618 205.776 70.3369C206.72 70.1562 207.653 70.0198 208.578 69.9183C209.499 69.8168 210.432 69.7661 211.379 69.7661C212.727 69.7661 213.887 69.8898 214.853 70.134C215.818 70.3813 216.612 70.7111 217.23 71.1234C217.848 71.5389 218.298 72.0082 218.578 72.5347C218.859 73.0611 218.999 73.6034 218.999 74.1616C218.999 74.7863 218.83 75.4047 218.492 76.0073C218.154 76.6098 217.645 77.1553 216.956 77.6342C216.271 78.1162 215.404 78.5 214.359 78.7917C213.313 79.0835 212.083 79.2294 210.665 79.2294C208.348 79.2294 206.363 78.8869 204.712 78.205C203.058 77.5232 201.716 76.521 200.68 75.2018C199.106 75.6933 197.509 76.2198 195.89 76.7779C194.271 77.3361 192.64 77.8562 190.998 78.3382C189.357 78.8203 187.709 79.2167 186.055 79.5306C184.401 79.8446 182.744 80 181.08 80C180.092 80 179.044 79.889 177.944 79.6638C176.842 79.4387 175.825 79.0708 174.891 78.557C173.958 78.0433 173.183 77.3773 172.565 76.5591C171.95 75.7441 171.641 74.7324 171.641 73.5209ZM210.872 77.4154C211.21 77.4154 211.541 77.3424 211.867 77.1965C212.192 77.0506 212.485 76.8731 212.743 76.6606C213.001 76.4481 213.208 76.2007 213.368 75.9217C213.524 75.6426 213.603 75.3667 213.603 75.1003C213.603 74.7419 213.473 74.4502 213.215 74.2282C212.956 74.003 212.641 73.8413 212.271 73.7429C211.902 73.6415 211.519 73.5749 211.124 73.54C210.729 73.5051 210.41 73.4892 210.162 73.4892C208.947 73.4892 207.733 73.5907 206.519 73.7905C206.879 74.8434 207.402 75.7092 208.087 76.391C208.775 77.076 209.703 77.4154 210.872 77.4154Z" fill="#093454"/>
</g>
</g>
</g>
<g id="Group_6">
<g id="Group_7">
<path id="Vector_9" d="M61.0303 4.31C71.3194 4.31 79.6901 12.6791 79.6901 22.9685V35.9104V40.8424V48.3742V53.3062V76.6103H26.0477C19.3922 76.6103 13.5401 73.1071 10.2369 67.848C9.29966 66.3565 8.5675 64.7227 8.08109 62.9889C7.63028 61.3855 7.38961 59.6975 7.38961 57.9518V55.3333V50.503V4.31H61.0303ZM61.8556 9.16404C61.7929 9.16065 61.7319 9.15556 61.6692 9.15387C61.7302 9.15556 61.7929 9.16065 61.8556 9.16404ZM63.1962 9.3081C63.1708 9.30471 63.1471 9.29962 63.1216 9.29623C63.1471 9.29962 63.1708 9.30301 63.1962 9.3081ZM65.1808 9.77418C65.2046 9.78265 65.2283 9.78943 65.252 9.79791C65.2283 9.79113 65.2046 9.78265 65.1808 9.77418C65.1571 9.76571 65.1334 9.75893 65.1096 9.75045C65.1351 9.75893 65.1588 9.7674 65.1808 9.77418ZM65.8299 9.9979C65.852 10.0064 65.8757 10.0148 65.8977 10.0233C65.874 10.0148 65.852 10.0064 65.8299 9.9979C65.7825 9.97926 65.7333 9.96231 65.6859 9.94536C65.7333 9.96231 65.7808 9.97926 65.8299 9.9979ZM66.4655 10.2521C66.3994 10.2233 66.3333 10.1979 66.2655 10.1708C66.3333 10.1962 66.3994 10.2233 66.4655 10.2521ZM67.1112 10.5487C67.0655 10.5267 67.0214 10.503 66.9756 10.4809C67.0197 10.503 67.0655 10.5267 67.1112 10.5487ZM67.6552 10.8335C67.6824 10.8487 67.7095 10.864 67.7383 10.8792C67.7112 10.8623 67.6841 10.847 67.6552 10.8335C67.6044 10.8046 67.5519 10.7775 67.501 10.7504C67.5536 10.7758 67.6044 10.8046 67.6552 10.8335ZM68.1739 11.1301C68.201 11.1453 68.2281 11.1623 68.2535 11.1792C68.2281 11.1623 68.201 11.147 68.1739 11.1301C68.1247 11.1012 68.0739 11.0724 68.0247 11.0419C68.0756 11.0724 68.1247 11.1012 68.1739 11.1301ZM68.8009 11.5351C68.8484 11.5673 68.8941 11.6012 68.9416 11.6334C68.8941 11.5995 68.8484 11.5673 68.8009 11.5351ZM69.2941 11.8876C69.3382 11.9199 69.3806 11.9521 69.4229 11.9859C69.3806 11.9521 69.3365 11.9199 69.2941 11.8876ZM69.8958 12.3656C69.989 12.4436 70.0805 12.5215 70.1703 12.6012C70.0805 12.5215 69.989 12.4419 69.8958 12.3656C69.8026 12.2876 69.7094 12.2114 69.6144 12.1368C69.7094 12.2114 69.8043 12.2876 69.8958 12.3656ZM70.3195 12.7317C70.2941 12.708 70.2686 12.6842 70.2415 12.6622C70.2686 12.6859 70.2941 12.7096 70.3195 12.7317ZM70.8228 13.2147C70.8567 13.2486 70.8889 13.2825 70.9228 13.3164C70.8906 13.2808 70.8567 13.2469 70.8228 13.2147ZM71.4601 13.8994C71.6025 14.0621 71.7397 14.2282 71.8753 14.3994C71.7414 14.2299 71.6025 14.0638 71.4601 13.8994C71.3177 13.7367 71.172 13.5774 71.0228 13.4198C71.172 13.5774 71.3194 13.7367 71.4601 13.8994ZM72.0533 14.6299C72.1058 14.6994 72.16 14.7706 72.2109 14.8418C72.16 14.7706 72.1075 14.6994 72.0533 14.6299C72.0211 14.5875 71.9872 14.5435 71.9533 14.5011C71.9872 14.5435 72.0211 14.5858 72.0533 14.6299ZM72.8278 15.7621C72.8871 15.857 72.9447 15.9536 73.0007 16.0519C72.943 15.9536 72.8854 15.857 72.8278 15.7621ZM73.1549 16.3264C73.4176 16.8044 73.6549 17.301 73.8599 17.8111C73.9362 17.9993 74.0074 18.1874 74.0752 18.3789C74.0074 18.1874 73.9362 17.9976 73.8599 17.8111C73.8074 17.6806 73.7532 17.5501 73.6955 17.4213C73.5328 17.0484 73.3515 16.6824 73.1549 16.3264C73.1193 16.262 73.082 16.1959 73.0464 16.1315C73.0837 16.1976 73.1193 16.262 73.1549 16.3264ZM74.4277 19.5331C74.4175 19.4924 74.4074 19.4517 74.3955 19.4111C74.4057 19.4517 74.4175 19.4924 74.4277 19.5331ZM74.5887 20.2415C74.5921 20.2619 74.5972 20.2822 74.6006 20.3025C74.5972 20.2822 74.5938 20.2619 74.5887 20.2415ZM74.7056 20.8991C74.709 20.9178 74.7107 20.9381 74.7141 20.9568C74.7107 20.9364 74.7073 20.9178 74.7056 20.8991C74.7023 20.8703 74.6972 20.8432 74.6938 20.8144C74.6972 20.8415 74.7006 20.8703 74.7056 20.8991ZM45.0821 21.0534C45.0635 21.0449 45.0448 21.0381 45.0262 21.0296C45.0448 21.0364 45.0635 21.0449 45.0821 21.0534ZM45.2753 21.1398C45.255 21.1296 45.2363 21.1212 45.216 21.1127C45.2363 21.1212 45.2567 21.1296 45.2753 21.1398ZM45.8278 21.4686C45.8194 21.4635 45.8126 21.4567 45.8041 21.4516C45.8126 21.4567 45.8211 21.4618 45.8278 21.4686ZM74.787 21.5313C74.787 21.5296 74.787 21.5296 74.787 21.5279C74.787 21.5279 74.787 21.5296 74.787 21.5313ZM46.0041 21.6059C45.9922 21.5957 45.9804 21.5872 45.9685 21.5771C45.9804 21.5855 45.9922 21.5957 46.0041 21.6059ZM46.1617 21.7466C46.1515 21.7364 46.1414 21.7279 46.1329 21.7194C46.1414 21.7279 46.1515 21.7381 46.1617 21.7466ZM46.5075 22.1364C46.499 22.1245 46.4905 22.1143 46.482 22.1025C46.4905 22.1126 46.499 22.1245 46.5075 22.1364ZM74.8446 22.2872C74.8446 22.2736 74.8429 22.2601 74.8429 22.2465C74.8429 22.2601 74.8429 22.2736 74.8446 22.2872ZM46.8396 22.655C46.8295 22.6363 46.8193 22.616 46.8091 22.5974C46.8193 22.6177 46.8295 22.6363 46.8396 22.655ZM44.355 22.877C44.5788 22.8584 44.8059 22.8516 45.0364 22.8516C44.8076 22.8516 44.5805 22.8584 44.355 22.877ZM46.6498 22.9092C46.643 22.9092 46.6363 22.9092 46.6295 22.9092C46.6363 22.9075 46.643 22.9092 46.6498 22.9092ZM43.8703 22.9397C43.9178 22.9312 43.9669 22.9228 44.0161 22.916C43.9669 22.9245 43.9195 22.9312 43.8703 22.9397ZM43.7127 22.9719C43.7585 22.9618 43.8042 22.9533 43.85 22.9448C43.8025 22.9516 43.7568 22.9618 43.7127 22.9719ZM43.5551 23.0075C43.5975 22.9973 43.6415 22.9855 43.6839 22.977C43.6415 22.9872 43.5975 22.9973 43.5551 23.0075ZM43.5212 23.016C43.4805 23.0262 43.4398 23.038 43.3992 23.0499C43.4398 23.0397 43.4805 23.0279 43.5212 23.016ZM43.1483 23.1346C43.1297 23.1414 43.1111 23.1482 43.0924 23.1567C43.1111 23.1499 43.1297 23.1414 43.1483 23.1346ZM43.0483 23.1753C43.0297 23.1821 43.0111 23.1906 42.9941 23.199C42.9772 23.2058 42.9602 23.2143 42.9433 23.2228C42.9602 23.2143 42.9772 23.2075 42.9941 23.199C43.0128 23.1906 43.0297 23.1821 43.0483 23.1753ZM42.745 23.3194C42.7128 23.3363 42.6806 23.355 42.6484 23.3736C42.6789 23.355 42.7111 23.3363 42.745 23.3194ZM42.5026 23.4634C42.5331 23.4431 42.5653 23.4228 42.5958 23.4041C42.5636 23.4228 42.5331 23.4431 42.5026 23.4634ZM42.0687 23.7956C42.101 23.7668 42.1315 23.738 42.1637 23.7126C42.1315 23.7397 42.101 23.7685 42.0687 23.7956ZM43.1348 24.0142C43.128 24.0142 43.1212 24.0126 43.1144 24.0126C43.1212 24.0126 43.1297 24.0142 43.1348 24.0142ZM43.7297 24.0973C43.7314 24.0973 43.7314 24.0973 43.7297 24.0973C43.7314 24.0973 43.7314 24.0973 43.7331 24.0973C43.7331 24.099 43.7331 24.099 43.7297 24.0973C43.7314 24.0973 43.7314 24.0973 43.7297 24.0973C43.7212 24.0956 43.7144 24.0939 43.7059 24.0939C43.7144 24.0956 43.7229 24.0956 43.7297 24.0973ZM44.0195 24.1566C44.0093 24.1549 43.9974 24.1515 43.9873 24.1498C43.9974 24.1515 44.0076 24.1532 44.0195 24.1566ZM44.5499 24.3024C44.5364 24.299 44.5245 24.2939 44.511 24.2905C44.5245 24.2939 44.5381 24.2973 44.5499 24.3024ZM45.033 24.4854C45.0194 24.4786 45.0042 24.4736 44.9906 24.4668C45.0042 24.4736 45.0194 24.4803 45.033 24.4854ZM45.4668 24.7091C45.4516 24.7007 45.4363 24.6905 45.4211 24.682C45.4363 24.6905 45.4516 24.699 45.4668 24.7091ZM45.6651 24.8346C45.6499 24.8244 45.6346 24.8142 45.6177 24.8024C45.6346 24.8125 45.6499 24.8227 45.6651 24.8346ZM46.4566 25.5938C46.443 25.5752 46.4295 25.5549 46.4142 25.5362C46.4295 25.5549 46.443 25.5735 46.4566 25.5938ZM46.5735 25.7718C46.56 25.7498 46.5481 25.7294 46.5346 25.7074C46.5481 25.7277 46.5617 25.7498 46.5735 25.7718ZM46.6769 25.9565C46.6651 25.9328 46.6532 25.9091 46.6413 25.8871C46.6549 25.9091 46.6651 25.9328 46.6769 25.9565ZM32.6304 26.1023C32.6236 26.1142 32.6185 26.126 32.6117 26.1362C32.6083 26.1447 32.6033 26.1531 32.5982 26.1599C32.6033 26.1514 32.6066 26.143 32.6117 26.1362C32.6185 26.1243 32.6236 26.1125 32.6304 26.1023ZM35.1556 26.8311C35.2488 26.7836 35.3421 26.7396 35.4387 26.6955C35.759 26.5463 36.0895 26.4091 36.4098 26.2633C35.9912 26.4531 35.5624 26.6277 35.1556 26.8311ZM46.8413 26.3531C46.8329 26.326 46.8227 26.2972 46.8142 26.2701C46.8244 26.2955 46.8329 26.3243 46.8413 26.3531ZM32.5151 26.3209C32.5134 26.3243 32.5117 26.3294 32.51 26.3328C32.5117 26.3277 32.5134 26.3243 32.5151 26.3209ZM46.9023 26.5616C46.8956 26.5311 46.8888 26.5006 46.8803 26.4718C46.8871 26.5006 46.8956 26.5311 46.9023 26.5616ZM32.4151 26.543C32.41 26.5548 32.405 26.5667 32.4016 26.5785C32.3982 26.587 32.3948 26.5938 32.3931 26.6023C32.3965 26.5938 32.3999 26.587 32.4016 26.5785C32.4067 26.5667 32.4117 26.5548 32.4151 26.543ZM46.9481 26.7785C46.943 26.7463 46.9379 26.7124 46.9312 26.6802C46.9379 26.7141 46.943 26.7463 46.9481 26.7785ZM30.1407 26.8497C30.1085 26.8192 30.0729 26.7904 30.0373 26.7599C30.0729 26.7904 30.1085 26.8209 30.1407 26.8497ZM35.1031 26.8599C35.059 26.8819 35.0167 26.904 34.9726 26.9277C34.9404 26.9446 34.9082 26.9633 34.876 26.9802C34.9082 26.9616 34.9404 26.9446 34.9726 26.9277C35.0167 26.904 35.0607 26.8819 35.1031 26.8599ZM30.2339 26.9396C30.2187 26.9243 30.2017 26.909 30.1848 26.8921C30.2017 26.9074 30.2187 26.9243 30.2339 26.9396ZM30.3187 27.026C30.3085 27.0158 30.2983 27.004 30.2865 26.9938C30.2966 27.004 30.3085 27.0158 30.3187 27.026ZM32.2507 27.0446C32.2541 27.0311 32.2575 27.0175 32.2609 27.0023C32.2575 27.0158 32.2541 27.0294 32.2507 27.0446ZM34.6658 27.1056C34.6455 27.1175 34.6252 27.1311 34.6048 27.1429C34.6252 27.1294 34.6455 27.1175 34.6658 27.1056ZM46.9939 27.2361C46.9922 27.1989 46.9922 27.1599 46.9905 27.1243C46.9922 27.1599 46.9922 27.1972 46.9939 27.2361ZM30.561 27.3683C30.5593 27.3633 30.5559 27.3599 30.5542 27.3548C30.5559 27.3599 30.5576 27.365 30.561 27.3683ZM30.5966 27.448C30.5966 27.4463 30.5949 27.4446 30.5949 27.4429C30.5949 27.4463 30.5949 27.448 30.5966 27.448ZM46.9854 27.6582C46.9837 27.6802 46.9803 27.7022 46.9786 27.7243C46.9803 27.7022 46.982 27.6802 46.9854 27.6582ZM30.6474 27.6243C30.6474 27.6226 30.6458 27.6209 30.6458 27.6192C30.6474 27.6209 30.6474 27.6226 30.6474 27.6243ZM30.6593 27.7107C30.6593 27.709 30.6593 27.7073 30.6593 27.7073C30.6593 27.709 30.6593 27.7107 30.6593 27.7107ZM30.6627 27.7988C30.6627 27.7971 30.6627 27.7971 30.6627 27.7954C30.6627 27.7971 30.6627 27.7988 30.6627 27.7988ZM46.9464 27.9819C46.9532 27.9327 46.9617 27.8836 46.9684 27.8361C46.9617 27.8853 46.9532 27.9344 46.9464 27.9819ZM32.1575 28.1615C32.1558 28.1497 32.1558 28.1361 32.1558 28.1242C32.1558 28.1361 32.1558 28.148 32.1575 28.1615ZM32.1796 28.3836C32.1779 28.3649 32.1745 28.348 32.1728 28.3293C32.1745 28.348 32.1762 28.3649 32.1796 28.3836ZM32.2151 28.6124C32.2101 28.5886 32.2067 28.5632 32.2016 28.5395C32.205 28.5649 32.2101 28.5886 32.2151 28.6124ZM32.2541 28.8039C32.2575 28.8208 32.2626 28.8361 32.266 28.853C32.2626 28.8361 32.2575 28.8191 32.2541 28.8039ZM32.3338 29.1073C32.3202 29.0632 32.3084 29.0208 32.2965 28.9768C32.3084 29.0191 32.3219 29.0632 32.3338 29.1073ZM24.5258 33.3054C24.5258 33.0003 24.5241 32.6969 24.5207 32.3919C24.5089 31.1072 23.692 30.1513 22.5514 30.0309C23.692 30.153 24.5072 31.1089 24.5207 32.3919C24.5258 32.6969 24.5275 33.0003 24.5258 33.3054ZM63.7741 31.3021C64.647 32.1563 65.2893 33.2461 65.5944 34.468C65.2893 33.2461 64.6487 32.1563 63.7741 31.3021ZM20.0973 33.6088C20.0973 33.1969 20.0973 32.7868 20.1007 32.3749C20.1007 32.2902 20.1057 32.2054 20.1142 32.1241C20.1057 32.2054 20.1024 32.2902 20.1007 32.3749C20.099 32.7851 20.0973 33.1969 20.0973 33.6088ZM15.7043 32.2986C15.7043 33.1376 15.7043 33.9765 15.7094 34.8172C15.706 33.9782 15.7043 33.1376 15.7043 32.2986ZM24.5241 34.7307C24.5241 34.4714 24.5258 34.2104 24.5258 33.9511C24.5241 34.2104 24.5241 34.4714 24.5241 34.7307ZM56.3356 35.3663C54.9967 35.6256 53.6866 35.9426 52.4071 36.3154C52.4071 36.2968 52.4054 36.2798 52.4054 36.2612C52.4054 36.2341 52.4054 36.207 52.4037 36.1798C52.4037 36.207 52.4037 36.2341 52.4054 36.2612C52.4054 36.2798 52.4071 36.2985 52.4071 36.3154C53.6866 35.9426 54.9967 35.6273 56.3356 35.3663ZM62.864 39.395C58.3067 39.6865 54.0968 40.6102 50.2513 42.166C49.5123 42.4643 48.787 42.7863 48.0751 43.1321C47.426 43.4473 46.8447 43.7541 46.3058 44.0575C46.0905 44.1795 45.8821 44.2998 45.6787 44.4202C45.8821 44.2998 46.0905 44.1778 46.3058 44.0575C46.8447 43.7541 47.426 43.4473 48.0751 43.1321C48.787 42.7863 49.5123 42.4643 50.2513 42.166C54.0968 40.6119 58.3084 39.6882 62.864 39.395C63.9182 39.3272 64.9927 39.2933 66.0842 39.2933C68.2959 39.2933 70.5822 39.4322 72.9414 39.7102C73.5769 39.7848 74.2158 39.8695 74.8616 39.9644C74.2158 39.8695 73.5752 39.7848 72.9414 39.7102C70.5822 39.4322 68.2959 39.2933 66.0842 39.2933C64.9927 39.2933 63.9199 39.3272 62.864 39.395ZM33.4354 39.9356C34.8658 40.4 35.9657 41.4338 36.3539 42.7084C35.9657 41.4355 34.8641 40.4017 33.4354 39.9356C33.4151 39.9288 33.3964 39.9221 33.3761 39.917C33.3947 39.9237 33.4151 39.9305 33.4354 39.9356ZM35.9912 44.7727C36.1268 44.6998 36.2606 44.6286 36.3911 44.5557C36.2606 44.6269 36.1268 44.6998 35.9912 44.7727ZM39.9197 48.1048C41.1536 47.3794 42.1552 46.7099 43.1314 46.0557C43.2229 45.9947 43.3161 45.932 43.4076 45.8709C43.3161 45.932 43.2246 45.993 43.1314 46.0557C42.1535 46.7099 41.1536 47.3777 39.9197 48.1048ZM45.5329 51.4673C45.6753 51.3961 45.8211 51.325 45.9685 51.2521C51.6037 48.5183 57.9423 47.0811 64.9317 46.9421C57.9423 47.0828 51.6054 48.5183 45.9685 51.2521C45.8194 51.325 45.6753 51.3961 45.5329 51.4673ZM63.5996 51.8182C58.7406 52.0554 54.2663 52.9995 50.2004 54.6519C49.4784 54.9451 48.77 55.2604 48.0751 55.5977C47.426 55.9129 46.8447 56.2197 46.3058 56.523C46.0905 56.6451 45.8821 56.7654 45.6787 56.8857C45.8821 56.7654 46.0905 56.6434 46.3058 56.523C46.8447 56.2197 47.426 55.9129 48.0751 55.5977C48.77 55.2604 49.4784 54.9451 50.2004 54.6519C54.2663 52.9995 58.7406 52.0554 63.5996 51.8182C64.4165 51.7775 65.2452 51.7588 66.0842 51.7588C65.2452 51.7571 64.4165 51.7775 63.5996 51.8182ZM18.4889 54.9384C19.0702 54.8723 19.6465 54.8011 20.2193 54.7214C19.6465 54.8011 19.0702 54.874 18.4889 54.9384ZM36.52 56.9501C37.7063 56.2925 38.6724 55.6824 39.5689 55.0909C38.6724 55.6807 37.708 56.2925 36.52 56.9501ZM41.1824 59.7975C41.8772 59.3585 42.5077 58.9365 43.1297 58.5196C43.2212 58.4585 43.3144 58.3958 43.406 58.3348C43.3144 58.3958 43.2229 58.4569 43.1297 58.5196C42.5077 58.9348 41.8772 59.3585 41.1824 59.7975ZM24.9665 61.3788C25.0783 61.3516 25.1885 61.3245 25.2986 61.2974C25.1885 61.3245 25.0766 61.3516 24.9665 61.3788ZM61.0303 0.920319H7.38961H4V4.31V50.503V55.3333V57.9518C4 59.972 4.27456 61.9753 4.81859 63.9058C5.38635 65.9294 6.24392 67.8632 7.36758 69.6513C9.31661 72.7529 12.03 75.3477 15.2162 77.151C18.5075 79.0153 22.2531 80 26.0494 80H79.6901H83.0797V76.6103V53.3062V48.3742V40.8424V35.9104V22.9685C83.0797 10.8114 73.1888 0.920319 61.0303 0.920319ZM44.1771 27.2361L44.2262 27.2243L44.1737 27.2395L44.1771 27.2361ZM43.9398 27.2938L43.9924 27.2802L43.989 27.2853L43.9398 27.2955V27.2938ZM43.9534 27.3022L43.9856 27.2921L43.9805 27.2989L43.9534 27.3022ZM43.9856 27.3073L44.0008 27.3056L43.9771 27.3158L43.9822 27.3073H43.9856ZM43.8551 27.3192L43.9025 27.3141L43.8652 27.3243H43.8534L43.8551 27.3192ZM43.8212 27.3226L43.8398 27.3209L43.8364 27.3277L43.7907 27.3311L43.8212 27.3226ZM43.7619 27.3294L43.7975 27.326L43.7653 27.3328H43.7602L43.7619 27.3294ZM43.7314 27.3328L43.7568 27.3294L43.7551 27.3328L43.711 27.3361L43.7314 27.3328ZM43.7873 27.3565L43.8297 27.3429L43.8229 27.3565H43.7873ZM43.7347 27.3904L43.7432 27.3717L43.7805 27.3734L43.7347 27.3904ZM43.8856 27.387L43.8907 27.3768H43.9025L43.8856 27.387ZM43.9296 27.387L43.9347 27.3785H43.9415L43.9296 27.387ZM43.7144 27.4344L43.7229 27.4175L43.7483 27.4192L43.7144 27.4344ZM43.6873 27.4955L43.6941 27.4819L43.7093 27.4836L43.6873 27.4955ZM43.7602 27.6192L43.789 27.5921L43.7703 27.6209L43.7602 27.6192ZM35.2658 27.9056L35.3963 27.9039L35.3997 27.909H35.2675L35.2658 27.9056ZM34.7472 27.9107L35.1014 27.9056L35.1031 27.909L34.7472 27.9107Z" fill="white"/>
</g>
<g id="Group_8">
<g id="XMLID_1_">
<g id="Group_9">
<path id="Vector_10" d="M74.8643 52.4283V71.7834H26.0504C22.1846 71.7834 18.6865 70.1869 16.1748 67.6226C24.3726 66.9802 31.6992 64.9685 38.0751 61.5974C40.2411 60.4534 41.7105 59.4704 43.1324 58.5196C44.6086 57.5332 46.0017 56.6027 48.0778 55.596C55.5587 51.9673 64.5378 50.9114 74.8643 52.4283Z" fill="#6AD4FE"/>
<path id="Vector_11" d="M74.8639 39.9644V47.5539C63.851 46.0438 54.1686 47.276 45.9708 51.2521C43.5964 52.4046 41.9965 53.4723 40.4508 54.5062C39.1306 55.3892 37.7646 56.301 35.8189 57.3298C29.3651 60.7415 21.7808 62.6211 13.1628 62.9634C12.556 61.4076 12.2188 59.7195 12.2188 57.9518V55.3604C22.0317 55.118 30.6904 53.0384 38.0747 49.1335C40.2407 47.9895 41.7118 47.0065 43.1337 46.0557C44.6082 45.0693 46.0013 44.1388 48.0775 43.1321C55.5583 39.5034 64.5374 38.4475 74.8639 39.9644Z" fill="#1A99D4"/>
<path id="Vector_12" d="M12.2188 34.8426H15.7134C15.7117 34.8341 15.7117 34.8257 15.7117 34.8172C15.705 33.4156 15.7067 32.0139 15.7084 30.6123C14.5474 30.7004 13.3848 30.7665 12.2188 30.8157V34.8426Z" fill="#FFA834"/>
<path id="Vector_13" d="M32.7615 25.8871C33.5767 24.6142 34.9631 24.0922 36.9172 24.2685C36.0189 23.3634 35.7088 23.3177 31.9005 23.5295C32.5259 20.7636 35.8393 20.367 38.5781 22.8008C38.3493 20.7551 36.7426 19.9314 35.3393 18.928C37.5103 17.584 39.8627 18.9009 40.7661 21.9567C41.9643 20.9263 43.2964 20.4229 44.8353 20.9568C45.4048 21.1551 45.8996 21.4483 46.3115 21.8974C54.7398 17.9603 64.2866 17.2756 73.6996 17.423C71.5573 12.5503 66.6881 9.13693 61.0326 9.13693H12.2188V30.8157C13.3848 30.7665 14.5474 30.7004 15.7084 30.6123C15.7084 30.2886 15.7084 29.9632 15.7084 29.6394C15.7084 29.4395 15.7084 29.2378 15.7084 29.0022C15.4982 28.9903 15.3372 28.9751 15.1762 28.97C14.6169 28.953 14.2169 28.7039 14.0322 28.1649C13.8525 27.6412 14.0441 27.2226 14.4491 26.8836C15.927 25.643 17.4049 24.4041 18.8844 23.1651C19.4962 22.6516 20.103 22.1364 20.7182 21.6279C21.7588 20.7653 22.8638 20.7551 23.896 21.6144C25.9484 23.3245 27.994 25.043 30.0396 26.7599C30.6125 27.2429 30.7752 27.6548 30.5972 28.1666C31.1175 28.0293 31.6345 27.8836 32.1531 27.7344C32.1819 27.0887 32.3836 26.4769 32.7615 25.8871Z" fill="#D68522"/>
<path id="Vector_14" d="M41.8906 23.9685C41.9788 23.9668 42.0652 23.9668 42.1516 23.9668C42.8889 23.6194 43.6244 23.2584 44.3566 22.8787C43.4617 22.9533 42.6211 23.2177 41.8906 23.9685Z" fill="#FFA834"/>
<path id="Vector_15" d="M46.3103 21.8974C46.5645 22.1737 46.7849 22.5092 46.9713 22.9177C46.0815 22.9007 45.1951 22.8075 44.3562 22.877C43.624 23.2567 42.8885 23.6177 42.1513 23.9651C45.8053 23.9634 47.6153 25.7972 46.8103 28.6073C45.8036 27.8497 44.7968 27.0362 43.7257 26.3192C43.3732 26.082 42.8529 26.0921 42.3428 26.0532C43.9071 27.1531 44.9104 28.5192 44.4901 30.4953C44.2681 31.5377 43.7071 32.4071 42.4563 32.9969C42.9614 30.3225 42.0936 28.2836 40.1005 26.6057C37.3668 28.9022 35.1873 31.5105 34.7246 35.2816C37.8566 36.2324 40.2819 38.6391 41.0632 41.6305C42.4292 40.7254 43.9071 39.7882 45.9697 38.7865C47.1984 38.1899 48.461 37.656 49.7558 37.1832C49.7135 36.8205 49.6914 36.4544 49.6914 36.0866C49.6914 30.8987 53.9115 26.6786 59.0976 26.6786C63.7482 26.6786 67.6225 30.0699 68.3733 34.5104C70.4816 34.5918 72.6459 34.785 74.8627 35.0884V22.9668C74.8627 20.9957 74.4458 19.1196 73.6984 17.4213C64.2854 17.2756 54.7386 17.9603 46.3103 21.8974Z" fill="#FFA834"/>
<path id="Vector_16" d="M34.3457 27.3277C33.6423 27.87 33.1288 28.6565 32.4441 29.4361C32.2255 28.8378 32.1289 28.2734 32.1526 27.7328C31.6357 27.8819 31.1171 28.0277 30.5967 28.165C30.5934 28.1768 30.59 28.1887 30.5849 28.1988C30.351 28.8158 29.8578 28.9937 29.2494 28.9717C29.1596 28.9683 29.0697 28.9903 28.9206 29.009C28.9206 29.3852 28.9206 29.753 28.9206 30.1191C28.9206 31.6224 28.9223 33.1258 28.9189 34.6291C28.9189 34.7037 28.9172 34.7731 28.9121 34.8409H31.7407C31.9662 34.8409 32.1899 34.8477 32.4119 34.863C32.8695 31.5597 34.4829 28.7819 36.8896 26.3854C36.854 26.3294 36.8167 26.2718 36.7811 26.2159C36.3354 26.3803 35.8879 26.5396 35.4388 26.6938C35.0507 26.8752 34.6761 27.0735 34.3457 27.3277Z" fill="#FFA834"/>
<path id="Vector_17" d="M35.4385 26.6955C35.8859 26.5413 36.3333 26.382 36.7808 26.2176C36.7604 26.1854 36.7384 26.1515 36.7181 26.1193C36.3011 26.3243 35.8622 26.4989 35.4385 26.6955Z" fill="#FFA834"/>
<path id="Vector_18" d="M59.0988 29.392C62.2325 29.392 64.8696 31.5546 65.5967 34.4681C60.9071 34.507 56.5057 35.124 52.4094 36.3154C52.406 36.2409 52.4043 36.1646 52.4043 36.0883C52.4043 32.3953 55.4075 29.392 59.0988 29.392Z" fill="#FFDC75"/>
<path id="Vector_19" d="M36.5053 43.7202V44.4948C36.285 44.6168 36.0562 44.7405 35.8189 44.8659C29.1312 48.4031 21.2283 50.2928 12.2188 50.5301V39.6712H31.7412C34.3682 39.6712 36.5053 41.4881 36.5053 43.7202Z" fill="#A8C91B"/>
<path id="Vector_20" d="M24.5239 32.3919C24.5324 33.1715 24.5256 33.9511 24.5256 34.7308C24.5256 34.7681 24.5256 34.8053 24.5256 34.8426H20.1005C20.1005 34.0189 20.0971 33.1969 20.1038 32.3732C20.1157 31.0123 21.0665 30.0106 22.3223 30.0174C23.5833 30.0259 24.5103 31.0225 24.5239 32.3919Z" fill="white"/>
<path id="Vector_21" d="M61.0322 4.31001H7.3916V50.503V55.3333V57.9518C7.3916 59.6975 7.63226 61.3855 8.08308 62.9889C8.56949 64.7227 9.30165 66.3565 10.2389 67.848C13.5421 73.1071 19.3942 76.6103 26.0497 76.6103H79.6921V53.3062V48.3742V40.8424V35.9104V22.9685C79.6921 12.6791 71.3214 4.31001 61.0322 4.31001ZM12.2184 39.6712H31.7409C34.3678 39.6712 36.505 41.4881 36.505 43.7202V44.4947C36.2847 44.6168 36.0559 44.7405 35.8186 44.8659C29.1309 48.403 21.228 50.2928 12.2184 50.5301V39.6712ZM20.1043 32.3732C20.1162 31.0123 21.067 30.0106 22.3228 30.0174C23.5838 30.0259 24.5108 31.0224 24.5244 32.3919C24.5329 33.1715 24.5261 33.9511 24.5261 34.7307C24.5261 34.768 24.5261 34.8053 24.5261 34.8426H20.101C20.101 34.0189 20.0976 33.1969 20.1043 32.3732ZM74.8635 71.7834H26.0497C22.1839 71.7834 18.6858 70.1869 16.1741 67.6226C24.3719 66.9802 31.6985 64.9684 38.0744 61.5974C40.2403 60.4534 41.7097 59.4704 43.1317 58.5196C44.6079 57.5332 46.001 56.6027 48.0771 55.596C55.558 51.9673 64.5371 50.9114 74.8635 52.4283V71.7834ZM74.8635 47.5539C63.8507 46.0438 54.1683 47.276 45.9705 51.2521C43.5961 52.4046 41.9962 53.4723 40.4505 54.5062C39.1302 55.3892 37.7642 56.301 35.8186 57.3298C29.3648 60.7415 21.7805 62.6211 13.1624 62.9634C12.5557 61.4076 12.2184 59.7195 12.2184 57.9518V55.3604C22.0313 55.118 30.6901 53.0384 38.0744 49.1335C40.2403 47.9895 41.7114 47.0065 43.1334 46.0557C44.6079 45.0693 46.001 44.1388 48.0771 43.1321C55.558 39.5034 64.5371 38.4475 74.8635 39.9644V47.5539ZM52.404 36.0883C52.404 32.3953 55.4072 29.392 59.0985 29.392C62.2322 29.392 64.8693 31.5546 65.5963 34.468C60.9068 34.507 56.5054 35.124 52.4091 36.3154C52.4057 36.2409 52.404 36.1646 52.404 36.0883ZM74.8635 35.0901C72.6467 34.7867 70.4825 34.5935 68.3741 34.5121C67.6233 30.0716 63.749 26.6802 59.0985 26.6802C53.9123 26.6802 49.6923 30.9004 49.6923 36.0883C49.6923 36.4561 49.7143 36.8222 49.7567 37.1849C48.4619 37.6577 47.1992 38.1916 45.9705 38.7882C43.9079 39.7899 42.43 40.7271 41.064 41.6321C40.2827 38.6408 37.8574 36.2341 34.7254 35.2833C35.1881 31.5122 37.3676 28.9039 40.1014 26.6074C42.0945 28.2853 42.9622 30.3242 42.4571 32.9986C43.7079 32.4088 44.2689 31.5394 44.4909 30.497C44.9112 28.5208 43.9079 27.1548 42.3436 26.0548C42.8537 26.0938 43.374 26.0837 43.7266 26.3209C44.7977 27.0379 45.8044 27.8514 46.8111 28.609C47.6348 25.7328 45.7213 23.877 41.8911 23.9685C43.3062 22.5143 45.1316 22.8838 46.9721 22.9177C46.484 21.8465 45.7552 21.2771 44.835 20.9568C43.2961 20.4229 41.964 20.9263 40.7657 21.9567C39.8624 18.9009 37.51 17.584 35.339 18.928C36.7423 19.9314 38.3489 20.7551 38.5777 22.8007C35.8389 20.367 32.5256 20.7635 31.9002 23.5295C35.7084 23.3177 36.0186 23.3634 36.9168 24.2685C34.9627 24.0922 33.5764 24.6142 32.7612 25.8871C32.0663 26.9718 31.9629 28.1226 32.4442 29.4361C33.1289 28.6564 33.6425 27.87 34.3458 27.3277C35.0373 26.7955 35.9203 26.5108 36.7185 26.1192C36.7762 26.2074 36.8321 26.2972 36.8897 26.387C34.4831 28.7835 32.8696 31.5614 32.412 34.8646C32.19 34.8494 31.9663 34.8426 31.7409 34.8426H28.9123C28.9173 34.7748 28.919 34.7053 28.919 34.6308C28.9224 33.1274 28.9207 31.6241 28.9207 30.1208C28.9207 29.7547 28.9207 29.3869 28.9207 29.0107C29.0699 28.992 29.1597 28.97 29.2495 28.9734C29.858 28.9954 30.3511 28.8174 30.585 28.2005C30.7833 27.6734 30.6257 27.2531 30.0393 26.7599C27.9937 25.043 25.948 23.3245 23.8956 21.6144C22.8635 20.7551 21.7585 20.7652 20.7179 21.6279C20.1027 22.1364 19.4959 22.6516 18.8841 23.1651C17.4045 24.4041 15.9266 25.643 14.4488 26.8836C14.0437 27.2226 13.8522 27.6412 14.0319 28.1649C14.2166 28.7039 14.6166 28.953 15.1758 28.97C15.3369 28.9751 15.4979 28.9903 15.708 29.0022C15.708 29.2378 15.708 29.4394 15.708 29.6394C15.708 31.3648 15.7029 33.0901 15.7114 34.8172C15.7114 34.8257 15.7114 34.8341 15.7131 34.8426H12.2184V9.13693H61.0322C68.6589 9.13693 74.8635 15.3417 74.8635 22.9685V35.0901Z" fill="#093454"/>
</g>
</g>
</g>
</g>
</g>
<defs>
<filter id="filter0_d_984_516" x="0" y="0.920319" width="222.999" height="87.0797" filterUnits="userSpaceOnUse" color-interpolation-filters="sRGB">
<feFlood flood-opacity="0" result="BackgroundImageFix"/>
<feColorMatrix in="SourceAlpha" type="matrix" values="0 0 0 0 0 0 0 0 0 0 0 0 0 0 0 0 0 0 127 0" result="hardAlpha"/>
<feOffset dy="4"/>
<feGaussianBlur stdDeviation="2"/>
<feComposite in2="hardAlpha" operator="out"/>
<feColorMatrix type="matrix" values="0 0 0 0 0 0 0 0 0 0 0 0 0 0 0 0 0 0 0.25 0"/>
<feBlend mode="normal" in2="BackgroundImageFix" result="effect1_dropShadow_984_516"/>
<feBlend mode="normal" in="SourceGraphic" in2="effect1_dropShadow_984_516" result="shape"/>
</filter>
</defs>
</svg>
